<?xml version="1.0" standalone="no"?>
<!DOCTYPE svg PUBLIC "-//W3C//DTD SVG 20010904//EN"
 "http://www.w3.org/TR/2001/REC-SVG-20010904/DTD/svg10.dtd">
<svg version="1.0" xmlns="http://www.w3.org/2000/svg"
 width="840.000000pt" height="859.000000pt" viewBox="0 0 840.000000 859.000000"
 preserveAspectRatio="xMidYMid meet">

<g transform="translate(0.000000,859.000000) scale(0.100000,-0.100000)"
fill="#000000" stroke="none">
<path d="M3500 8430 c-859 -150 -1627 -548 -2240 -1160 -468 -467 -812 -1024
-1020 -1650 -86 -259 -158 -604 -191 -915 -19 -176 -16 -635 5 -817 36 -317
94 -589 182 -860 479 -1477 1741 -2568 3269 -2827 941 -160 1936 13 2750 478
1003 573 1715 1505 1995 2611 156 617 171 1230 44 1856 -340 1689 -1691 2998
-3391 3285 l-174 29 -532 -1 -532 0 -165 -29z m1972 -1800 c295 -20 394 -52
543 -173 86 -70 152 -142 190 -209 23 -39 25 -54 25 -171 0 -92 4 -138 15
-164 9 -20 64 -87 124 -148 60 -61 119 -131 131 -155 31 -62 24 -128 -29 -260
-49 -121 -61 -201 -38 -246 8 -16 49 -68 91 -117 42 -48 83 -101 92 -119 28
-54 14 -105 -64 -236 -38 -64 -75 -136 -81 -159 -15 -55 -4 -81 83 -196 36
-49 69 -100 72 -114 34 -134 -161 -454 -321 -529 -100 -46 -328 -64 -847 -64
-345 0 -371 -1 -422 -20 -34 -13 -68 -35 -90 -60 -30 -34 -36 -47 -36 -85 0
-66 54 -203 190 -485 165 -339 198 -465 187 -709 -11 -253 -84 -422 -232 -539
-99 -78 -217 -122 -330 -122 -67 0 -125 27 -125 58 0 10 -7 89 -15 175 -48
497 -134 771 -298 944 -39 41 -108 104 -152 138 -97 76 -182 164 -217 225 -15
25 -45 92 -68 150 -106 268 -254 563 -368 735 -85 128 -207 256 -277 290 -29
15 -78 29 -110 32 -50 5 -59 10 -76 37 -28 45 -37 86 -54 237 -34 315 -48 569
-49 904 0 354 9 504 45 725 24 145 38 168 122 194 29 8 259 54 512 101 347 65
503 89 635 100 489 40 971 53 1242 35z m-2777 -125 c34 -21 56 -45 74 -79 24
-47 25 -49 12 -145 -73 -556 -76 -1064 -10 -1681 23 -217 22 -265 -11 -314
-62 -90 -107 -98 -507 -94 -351 3 -358 4 -421 69 -18 18 -37 49 -43 69 -6 23
-9 381 -7 1056 l3 1020 24 36 c29 42 79 77 123 89 18 4 186 7 374 6 l341 -2
48 -30z"/>
</g>
</svg>
