<?xml version="1.0" standalone="no"?>
<!DOCTYPE svg PUBLIC "-//W3C//DTD SVG 20010904//EN"
 "http://www.w3.org/TR/2001/REC-SVG-20010904/DTD/svg10.dtd">
<svg version="1.0" xmlns="http://www.w3.org/2000/svg"
 width="640.000000pt" height="495.000000pt" viewBox="0 0 640.000000 495.000000"
 preserveAspectRatio="xMidYMid meet">

<g transform="translate(0.000000,495.000000) scale(0.100000,-0.100000)"
fill="#000000" stroke="none">
<path d="M3185 3787 c-17 -7 -48 -23 -69 -36 l-38 -24 5 -61 c4 -34 12 -142
18 -242 l13 -181 -183 -339 c-100 -186 -186 -342 -190 -347 -4 -4 -18 10 -32
30 -15 24 -37 42 -59 50 -45 15 -678 18 -732 3 -20 -6 -48 -24 -62 -41 l-26
-31 0 -668 0 -668 26 -31 c14 -17 42 -35 62 -41 54 -15 687 -12 732 3 47 16
80 68 80 124 0 25 3 43 8 41 4 -2 40 -20 80 -40 114 -57 147 -59 732 -56 473
3 529 5 563 20 67 30 114 76 146 140 26 50 31 73 31 129 0 65 1 69 29 83 43
23 107 101 125 153 18 53 21 122 6 172 -9 33 -7 36 30 68 89 76 120 219 71
328 -12 27 -31 59 -42 71 -19 21 -19 21 8 70 24 42 28 60 28 129 0 67 -5 88
-27 131 -31 59 -84 108 -147 138 -44 20 -65 21 -393 24 -192 2 -348 5 -348 8
0 3 9 65 21 137 40 258 21 400 -77 567 -40 68 -129 154 -186 180 -49 22 -154
26 -203 7z m160 -113 c55 -26 114 -94 155 -179 70 -146 74 -214 30 -495 -16
-105 -30 -200 -30 -211 0 -18 11 -19 402 -19 l401 0 43 -25 c71 -41 103 -114
84 -188 -9 -31 -27 -57 -71 -98 l-59 -56 33 -15 c50 -24 98 -69 113 -105 45
-107 -22 -222 -143 -248 -18 -3 -33 -9 -33 -13 0 -3 17 -30 37 -59 31 -46 37
-63 37 -107 0 -93 -55 -154 -160 -176 -30 -6 -54 -13 -54 -15 0 -2 11 -27 25
-57 14 -29 25 -69 25 -88 0 -50 -32 -113 -71 -141 l-34 -24 -557 -3 c-629 -3
-592 -7 -722 79 l-66 43 0 461 1 460 52 42 c48 40 67 71 239 390 102 192 192
367 198 391 8 33 7 87 -4 235 -9 106 -16 198 -16 205 0 31 93 41 145 16z"/>
</g>
</svg>
