<?xml version="1.0" standalone="no"?>
<!DOCTYPE svg PUBLIC "-//W3C//DTD SVG 20010904//EN"
 "http://www.w3.org/TR/2001/REC-SVG-20010904/DTD/svg10.dtd">
<svg version="1.0" xmlns="http://www.w3.org/2000/svg"
 width="900.000000pt" height="660.000000pt" viewBox="0 0 900.000000 660.000000"
 preserveAspectRatio="xMidYMid meet">

<g transform="translate(0.000000,660.000000) scale(0.100000,-0.100000)"
fill="#000000" stroke="none">
<path d="M4465 5159 c-22 -4 -89 -13 -150 -19 -60 -6 -128 -15 -150 -21 -22
-6 -58 -15 -80 -21 -22 -5 -48 -14 -57 -19 -10 -5 -27 -9 -38 -9 -11 0 -20 -4
-20 -10 0 -5 -8 -10 -19 -10 -10 0 -32 -7 -47 -15 -16 -8 -37 -15 -46 -15 -10
0 -18 -4 -18 -10 0 -5 -9 -10 -20 -10 -11 0 -20 -4 -20 -8 0 -5 -16 -14 -35
-22 -19 -8 -35 -17 -35 -22 0 -4 -6 -8 -12 -8 -7 0 -58 -30 -113 -67 -117 -79
-307 -263 -380 -368 -27 -38 -52 -72 -55 -75 -3 -3 -14 -24 -25 -47 -11 -24
-23 -43 -26 -43 -3 0 -11 -16 -19 -35 -8 -19 -17 -35 -22 -35 -4 0 -8 -6 -8
-14 0 -8 -6 -27 -14 -43 -8 -15 -20 -41 -26 -58 -7 -16 -16 -38 -21 -47 -5
-10 -9 -27 -9 -37 0 -11 -4 -23 -10 -26 -5 -3 -10 -17 -10 -30 0 -13 -4 -26
-9 -29 -5 -3 -11 -23 -14 -43 -2 -21 -7 -49 -11 -63 -3 -14 -11 -72 -16 -128
-6 -57 -15 -126 -20 -154 -6 -28 -8 -54 -5 -58 3 -4 12 -65 20 -135 17 -149
34 -243 46 -267 5 -10 9 -29 9 -43 0 -14 5 -25 10 -25 6 0 10 -9 10 -20 0 -11
4 -28 9 -38 5 -9 13 -28 18 -42 19 -49 88 -185 96 -188 4 -2 7 -8 7 -14 0 -6
30 -56 67 -112 66 -98 225 -270 323 -347 68 -54 183 -129 197 -129 7 0 13 -4
13 -8 0 -5 16 -14 35 -22 19 -8 35 -17 35 -22 0 -4 9 -8 20 -8 11 0 20 -4 20
-10 0 -5 8 -10 18 -10 9 0 30 -7 46 -15 15 -8 37 -15 47 -15 11 0 19 -4 19
-10 0 -5 9 -10 20 -10 11 0 28 -4 38 -9 9 -5 35 -14 57 -19 22 -6 58 -15 80
-21 22 -6 90 -15 150 -21 61 -6 130 -15 155 -19 30 -6 68 -5 118 5 41 8 90 14
110 14 46 0 211 29 234 41 10 5 27 9 37 9 11 0 23 5 26 10 3 6 17 10 31 10 13
0 24 5 24 10 0 6 9 10 20 10 11 0 28 4 38 9 9 5 53 27 97 47 44 21 82 42 83
46 2 4 9 8 16 8 36 0 229 150 344 266 67 69 122 129 122 134 0 5 6 15 14 23
21 21 120 176 137 215 7 17 17 32 21 32 5 0 8 6 8 14 0 8 6 27 14 43 8 15 20
42 26 58 7 17 16 38 21 47 5 10 9 27 9 37 0 11 5 23 10 26 6 3 10 17 10 30 0
13 5 27 10 30 6 3 10 19 10 34 0 15 4 41 10 57 7 23 33 214 44 324 1 17 -20
190 -36 290 -6 36 -12 82 -15 103 -3 20 -9 40 -14 43 -5 3 -9 16 -9 29 0 13
-4 27 -10 30 -5 3 -10 15 -10 26 0 10 -4 27 -9 37 -5 9 -14 31 -21 47 -7 17
-19 42 -26 57 -8 14 -14 33 -14 42 0 9 -3 16 -8 16 -4 0 -13 15 -21 33 -37 88
-170 266 -281 378 -107 109 -303 259 -336 259 -7 0 -14 4 -16 8 -3 7 -126 68
-188 94 -14 6 -33 14 -42 19 -10 5 -27 9 -37 9 -11 0 -23 5 -26 10 -3 6 -17
10 -30 10 -13 0 -27 5 -30 10 -3 6 -21 10 -39 10 -18 0 -36 3 -40 7 -7 8 -6 8
-151 21 -61 6 -117 13 -125 16 -34 10 -77 12 -115 5z m-295 -854 c122 -22 273
-133 317 -234 10 -22 20 -41 23 -41 3 0 15 22 28 48 12 26 39 65 59 86 44 46
149 116 174 116 10 0 20 4 23 9 13 21 215 33 281 17 85 -21 148 -58 216 -125
99 -100 138 -197 156 -389 3 -41 1 -68 -6 -75 -6 -6 -11 -22 -11 -36 0 -34
-47 -164 -85 -234 -52 -95 -144 -216 -240 -313 -90 -91 -252 -229 -306 -261
-16 -10 -29 -21 -29 -25 0 -4 -6 -8 -14 -8 -8 0 -16 -3 -18 -7 -3 -9 -115 -83
-124 -83 -3 0 -25 -13 -49 -30 -24 -16 -48 -30 -54 -30 -21 0 -267 163 -378
251 -115 90 -214 182 -285 266 -117 137 -191 255 -229 366 -12 34 -26 82 -31
107 -5 25 -12 58 -15 74 -11 57 31 237 78 326 29 57 132 159 184 184 22 10 48
22 57 27 10 5 28 9 40 9 13 0 30 5 38 11 15 10 130 6 200 -6z"/>
</g>
</svg>
