<?xml version="1.0" standalone="no"?>
<!DOCTYPE svg PUBLIC "-//W3C//DTD SVG 20010904//EN"
 "http://www.w3.org/TR/2001/REC-SVG-20010904/DTD/svg10.dtd">
<svg version="1.0" xmlns="http://www.w3.org/2000/svg"
 width="256.000000pt" height="256.000000pt" viewBox="0 0 256.000000 256.000000"
 preserveAspectRatio="xMidYMid meet">

<g transform="translate(0.000000,256.000000) scale(0.100000,-0.100000)"
fill="#000000" stroke="none">
<path d="M1257 1978 c-7 -4 -35 -8 -63 -8 -36 0 -83 -13 -162 -44 -90 -35
-124 -55 -178 -102 -82 -72 -124 -128 -124 -165 0 -34 -10 -60 -19 -54 -4 2
-8 -1 -9 -8 -1 -7 -11 -46 -23 -87 -29 -97 -32 -323 -5 -380 11 -25 15 -28 11
-10 -3 14 -8 75 -11 135 -6 95 -4 121 15 190 31 112 42 140 52 123 4 -7 -4
-58 -17 -113 -47 -192 -8 -362 117 -520 51 -64 182 -165 214 -165 6 0 20 -9
30 -20 10 -11 53 -40 96 -65 72 -42 85 -46 168 -52 86 -6 92 -5 130 20 22 15
45 28 51 29 7 2 26 17 44 33 18 17 74 63 125 104 125 101 190 198 220 333 19
83 21 106 12 197 -5 57 -12 105 -14 107 -2 3 -2 -47 1 -109 4 -105 3 -120 -23
-198 -34 -101 -108 -221 -167 -269 -88 -72 -83 -69 -65 -33 10 18 33 44 52 58
19 15 57 62 84 104 67 105 96 213 87 326 -9 115 -37 210 -85 288 -23 37 -42
73 -44 80 -1 6 -8 18 -14 25 -19 20 -16 32 10 33 12 0 16 3 10 6 -7 2 -13 13
-13 24 0 12 -5 16 -15 13 -8 -4 -15 -1 -15 5 0 6 -5 11 -11 11 -7 0 -10 -14
-7 -35 6 -51 -14 -25 -35 46 -10 31 -23 61 -30 67 -6 5 -52 25 -102 43 -90 33
-251 54 -278 37z m248 -68 c88 -34 142 -79 109 -90 -17 -6 -17 -7 2 -12 15 -4
26 -24 41 -79 20 -68 26 -96 38 -184 2 -16 13 -81 25 -144 20 -107 21 -117 6
-156 -9 -23 -19 -86 -23 -141 -7 -116 -27 -170 -106 -286 -42 -61 -64 -84
-113 -112 -58 -34 -64 -36 -125 -30 -49 5 -83 17 -144 50 -108 58 -174 127
-220 229 -20 44 -51 96 -69 115 -29 31 -39 58 -85 240 -32 123 -51 215 -47
231 3 15 1 29 -4 31 -6 2 -11 29 -11 61 l-2 59 77 76 c72 73 81 79 183 117
114 42 166 51 303 54 73 1 97 -3 165 -29z m273 -297 c109 -178 110 -422 3
-587 -59 -90 -78 -103 -51 -36 12 29 30 65 40 80 28 40 60 166 60 238 0 83
-34 215 -71 275 -16 26 -29 54 -29 62 0 7 -4 17 -10 20 -14 9 -12 27 3 23 6
-3 31 -36 55 -75z m2 -154 c11 -41 20 -107 20 -147 0 -82 -25 -195 -47 -213
-22 -19 -16 97 7 136 17 29 17 35 0 135 -33 200 -33 197 -15 179 9 -9 25 -49
35 -90z m-1014 -137 l2 -137 41 -89 c22 -48 38 -93 34 -99 -4 -6 0 -8 9 -5 10
4 27 -9 51 -41 20 -26 47 -53 59 -60 13 -7 33 -28 45 -47 24 -37 22 -37 -47
10 -53 36 -88 73 -96 103 -3 13 -9 21 -13 18 -18 -11 -98 140 -107 201 -17
120 -19 176 -6 234 8 34 16 59 20 55 3 -3 7 -67 8 -143z m126 -277 c35 -40 73
-104 66 -110 -7 -8 -99 115 -110 147 -6 18 -14 35 -17 38 -19 15 -34 74 -37
145 l-4 80 34 -130 c28 -108 39 -136 68 -170z"/>
<path d="M1477 1859 c7 -7 15 -10 18 -7 3 3 -2 9 -12 12 -14 6 -15 5 -6 -5z"/>
<path d="M1545 1829 c-10 -15 3 -25 16 -12 7 7 7 13 1 17 -6 3 -14 1 -17 -5z"/>
<path d="M885 1770 c4 -6 11 -8 16 -5 14 9 11 15 -7 15 -8 0 -12 -5 -9 -10z"/>
<path d="M1445 1723 c4 -34 2 -43 -10 -43 -11 0 -13 -7 -9 -29 6 -27 4 -29
-15 -24 -50 13 -99 -82 -89 -171 12 -103 83 -175 173 -176 58 0 84 14 126 73
30 42 37 100 19 157 -6 20 -8 14 -9 -28 -1 -58 -16 -95 -54 -130 -23 -22 -25
-22 -32 -5 -6 16 -8 16 -16 -6 -6 -15 -14 -21 -25 -17 -9 3 -24 6 -34 6 -11 0
-35 16 -54 35 -57 57 -60 158 -6 225 17 21 21 23 30 10 5 -8 7 -22 5 -30 -7
-22 6 -35 38 -37 24 -2 27 1 27 27 0 16 -4 40 -10 54 -8 23 -7 26 13 26 12 0
36 -7 52 -15 l30 -15 -28 25 c-17 15 -40 25 -58 25 -21 0 -29 5 -29 18 -1 9
-10 33 -21 52 l-20 35 6 -42z"/>
<path d="M1590 1695 c0 -19 4 -35 8 -35 4 0 6 16 4 35 -2 19 -6 35 -8 35 -2 0
-4 -16 -4 -35z"/>
<path d="M845 1649 c-10 -15 3 -25 16 -12 7 7 7 13 1 17 -6 3 -14 1 -17 -5z"/>
<path d="M1602 1620 c0 -19 2 -27 5 -17 2 9 2 25 0 35 -3 9 -5 1 -5 -18z"/>
<path d="M790 1602 c0 -5 7 -13 16 -16 10 -4 14 -1 12 6 -5 15 -28 23 -28 10z"/>
<path d="M1003 1567 c-3 -4 -12 -7 -21 -5 -17 3 -25 -6 -58 -70 -15 -27 -16
-34 -4 -45 10 -10 11 -9 5 1 -9 17 42 72 67 72 19 0 24 -15 8 -25 -5 -3 -7
-12 -3 -20 3 -8 2 -23 -2 -32 -6 -16 -9 -14 -19 9 -11 26 -12 26 -24 8 -7 -11
-8 -20 -2 -20 5 0 7 -6 4 -14 -3 -8 -1 -17 5 -21 16 -9 13 -55 -4 -61 -11 -5
-12 -10 -3 -24 7 -10 15 -17 18 -15 8 5 50 -50 50 -65 0 -18 -20 -11 -21 8 0
10 -3 12 -6 5 -8 -22 -21 -14 -47 30 -28 46 -34 44 -12 -6 17 -39 58 -83 86
-92 11 -3 20 -13 20 -20 0 -8 5 -17 10 -20 7 -4 9 2 5 18 -5 19 -2 25 14 30
24 6 40 -11 21 -23 -9 -6 -8 -16 5 -44 10 -20 21 -39 26 -42 8 -4 4 57 -6 108
-2 10 5 20 15 23 28 9 47 46 55 108 6 50 5 57 -9 51 -9 -3 -20 -22 -26 -43
-17 -63 -60 -104 -60 -56 0 32 -20 65 -36 58 -12 -4 -14 -14 -9 -42 4 -20 11
-41 16 -47 9 -11 3 -24 -11 -24 -4 0 -12 24 -19 53 -6 29 -20 61 -31 70 -11 9
-20 25 -20 34 0 13 4 11 13 -7 15 -30 54 -39 63 -15 4 9 1 35 -6 58 -13 43
-22 117 -14 117 12 0 90 -47 101 -60 14 -17 17 -34 5 -26 -5 3 -4 -10 2 -28
12 -40 32 -37 38 5 6 42 -9 67 -72 115 -52 40 -94 52 -107 31z"/>
<path d="M863 1535 c-3 -9 -3 -18 0 -21 9 -9 27 6 27 22 0 19 -19 18 -27 -1z"/>
<path d="M832 1500 c0 -14 2 -19 5 -12 2 6 2 18 0 25 -3 6 -5 1 -5 -13z"/>
<path d="M1460 1501 c-10 -21 -4 -51 11 -51 5 0 15 -15 23 -32 l14 -33 2 30
c1 17 5 39 9 50 18 44 -36 77 -59 36z"/>
<path d="M885 1490 c3 -5 8 -10 11 -10 2 0 4 5 4 10 0 6 -5 10 -11 10 -5 0 -7
-4 -4 -10z"/>
<path d="M848 1452 c-3 -9 -1 -26 3 -37 9 -23 9 -22 15 23 4 33 -10 45 -18 14z"/>
<path d="M920 1419 c0 -5 5 -7 10 -4 6 3 10 8 10 11 0 2 -4 4 -10 4 -5 0 -10
-5 -10 -11z"/>
<path d="M876 1332 c-3 -5 5 -42 17 -83 22 -71 23 -73 30 -41 4 19 3 41 -3 50
-8 14 -10 14 -11 2 0 -8 -5 -2 -10 15 -5 18 -5 33 1 39 6 6 10 14 10 18 0 11
-27 10 -34 0z"/>
<path d="M1656 1253 c-17 -34 -33 -46 -22 -17 9 23 -15 12 -33 -16 -10 -14
-11 -21 -3 -16 27 17 9 -13 -29 -48 -40 -35 -100 -69 -126 -70 -7 -1 -20 -11
-28 -23 -9 -12 -32 -27 -52 -32 -42 -12 -57 -6 -22 8 18 7 12 8 -26 4 -27 -3
-59 -12 -70 -19 -26 -18 -45 -18 -59 2 -8 10 -28 16 -59 16 -25 1 -44 5 -41
10 3 4 -3 8 -14 8 -10 0 -27 8 -38 18 -17 16 -74 29 -74 17 0 -2 9 -12 19 -22
10 -10 34 -55 52 -101 28 -73 41 -91 98 -144 36 -33 75 -65 86 -70 20 -11 20
-11 1 11 -20 22 -20 22 0 15 10 -4 29 -14 41 -22 34 -22 174 -13 202 12 12 11
30 20 41 21 10 1 29 13 40 28 12 15 26 26 32 24 7 -1 14 7 16 18 2 11 10 27
17 35 7 8 23 40 35 70 18 45 22 73 21 152 -1 56 3 106 9 118 6 12 9 26 7 33
-2 7 -11 -3 -21 -20z m-25 -148 l-7 -40 -7 36 c-8 41 1 80 13 58 5 -8 5 -32 1
-54z m-21 -62 c8 -65 8 -86 -2 -102 -7 -12 -15 -21 -18 -21 -3 0 -16 37 -29
81 l-25 82 28 24 c16 13 30 23 31 21 2 -2 8 -40 15 -85z m-56 -55 l26 -93 -27
-22 c-16 -13 -31 -23 -35 -23 -5 0 -8 -7 -8 -15 0 -8 -4 -15 -10 -15 -10 0
-16 29 -28 137 -8 69 -7 73 17 98 14 14 28 25 32 25 3 0 18 -42 33 -92z m-494
48 c19 -24 -6 -20 -30 4 -11 11 -20 22 -20 25 0 9 35 -12 50 -29z m394 -58 c4
-24 9 -61 11 -83 3 -22 8 -47 10 -56 4 -10 -7 -21 -31 -33 -31 -14 -36 -15
-31 -1 4 8 2 15 -3 15 -17 0 -11 52 8 67 16 13 15 14 -4 8 -19 -5 -23 0 -28
32 -4 21 -9 46 -12 56 -4 11 0 17 10 17 9 0 16 5 16 10 0 6 11 10 24 10 20 0
25 -6 30 -42z m-300 -26 c3 -20 4 -38 2 -40 -8 -7 -64 28 -70 43 -12 33 -7 41
28 37 30 -3 34 -8 40 -40z m210 12 c4 -19 9 -41 12 -48 4 -10 -14 -15 -68 -20
-84 -8 -123 2 -133 36 -18 61 -19 58 22 58 22 0 44 -5 51 -12 9 -9 12 -9 12
-1 0 7 17 14 38 16 20 2 42 4 48 5 7 1 15 -14 18 -34z m22 -111 c3 -16 7 -33
9 -39 6 -20 -18 -34 -57 -34 -24 0 -38 5 -38 13 0 9 -3 8 -9 -2 -7 -10 -15
-11 -37 -3 -16 6 -22 11 -14 12 8 1 2 5 -14 9 -16 3 -31 12 -34 19 -3 9 15 12
65 13 37 1 79 5 93 9 25 8 25 8 -5 10 -26 1 -27 3 -10 10 34 15 44 11 51 -17z
m-206 -23 c0 -5 -6 -10 -14 -10 -8 0 -18 5 -21 10 -3 6 3 10 14 10 12 0 21 -4
21 -10z"/>
<path d="M1730 1862 c0 -12 19 -26 26 -19 2 2 -2 10 -11 17 -9 8 -15 8 -15 2z"/>
<path d="M1785 1750 c3 -5 14 -10 23 -10 15 0 15 2 2 10 -20 13 -33 13 -25 0z"/>
<path d="M1830 1740 c0 -5 5 -10 11 -10 5 0 7 5 4 10 -3 6 -8 10 -11 10 -2 0
-4 -4 -4 -10z"/>
<path d="M1950 1480 c0 -5 5 -10 10 -10 6 0 10 5 10 10 0 6 -4 10 -10 10 -5 0
-10 -4 -10 -10z"/>
</g>
</svg>
